<svg width="36" height="37" viewBox="0 0 36 37" fill="none" xmlns="http://www.w3.org/2000/svg">
<path d="M8.54159 9.91344C23.3141 7.85186 26.9546 8.10488 29.2504 10.7917C31.5461 13.4785 31.0085 22.3358 28.325 24.8009C25.643 27.2661 13.9956 27.5004 10.3056 24.8009C6.40709 21.9473 8.66909 13.1691 8.54159 7.85186C8.61809 4.87645 5.47559 4.3939 5.47559 4.3939" stroke="white" stroke-width="2" stroke-linecap="round" stroke-linejoin="round"/>
<path d="M21.2344 16.5262H25.3939" stroke="white" stroke-width="2" stroke-linecap="round" stroke-linejoin="round"/>
<path fill-rule="evenodd" clip-rule="evenodd" d="M10.8966 31.0297C11.3466 31.0297 11.7126 31.4059 11.7126 31.8684C11.7126 32.3324 11.3466 32.7086 10.8966 32.7086C10.4451 32.7086 10.0791 32.3324 10.0791 31.8684C10.0791 31.4059 10.4451 31.0297 10.8966 31.0297Z" fill="white" stroke="white" stroke-width="2" stroke-linecap="round" stroke-linejoin="round"/>
<path fill-rule="evenodd" clip-rule="evenodd" d="M26.3931 31.0297C26.8446 31.0297 27.2106 31.4059 27.2106 31.8684C27.2106 32.3324 26.8446 32.7086 26.3931 32.7086C25.9431 32.7086 25.5771 32.3324 25.5771 31.8684C25.5771 31.4059 25.9431 31.0297 26.3931 31.0297Z" fill="white" stroke="white" stroke-width="2" stroke-linecap="round" stroke-linejoin="round"/>
</svg>
