<svg width="21" height="15" viewBox="0 0 21 15" fill="none" xmlns="http://www.w3.org/2000/svg">
<path fill-rule="evenodd" clip-rule="evenodd" d="M18.6768 6.01459V3.94065H16.6474V6.01459H14.618V8.08906H16.6474V10.163H18.6768V8.08906H20.7062V6.01459H18.6768ZM12.9945 6.01459C13.0493 6.01459 13.0959 6.91891 13.0959 7.35341C13.0959 11.1323 10.618 14.0588 6.8829 14.0588C3.30606 14.0588 0.412109 11.0983 0.412109 7.44281C0.412109 3.78633 3.30606 0.823547 6.8829 0.823547C8.63023 0.823547 10.0914 1.46459 11.2187 2.54205L9.46228 4.24977C8.98232 3.7769 8.14012 3.18668 6.8829 3.18668C4.67389 3.18668 2.87075 4.97167 2.87075 7.27694C2.87075 9.5822 4.67389 11.2826 6.8829 11.2826C9.44402 11.2826 10.4059 9.12606 10.5531 8.08906H6.50034V6.01459H12.9945Z" fill="#F94343"/>
</svg>
