<svg width="16" height="15" viewBox="0 0 16 15" fill="none" xmlns="http://www.w3.org/2000/svg">
<path d="M3.80469 4.91797H0.880859V14.2754H3.80469V4.91797Z" fill="#005F9F"/>
<path d="M2.28125 0.5C1.20313 0.5 0.494141 1.19727 0.494141 2.12305C0.494141 3.03125 1.17969 3.74609 2.24023 3.74609H2.26367C3.36523 3.74609 4.05078 3.02539 4.04492 2.12305C4.02148 1.19727 3.35937 0.5 2.28125 0.5Z" fill="#005F9F"/>
<path d="M11.791 4.83008C10.1152 4.83008 9.06641 5.74414 8.87305 6.38867V4.91797H5.58594C5.62695 5.69727 5.58594 14.2754 5.58594 14.2754H8.87305V9.21875C8.87305 8.93164 8.86133 8.65039 8.94336 8.45117C9.16602 7.88867 9.65234 7.30274 10.5254 7.30274C11.668 7.30274 12.1836 8.16992 12.1836 9.43555V14.2754H15.5V9.07227C15.5 6.17773 13.8711 4.83008 11.791 4.83008Z" fill="#005F9F"/>
</svg>
