<svg width="45" height="45" viewBox="0 0 45 45" fill="none" xmlns="http://www.w3.org/2000/svg">
<path d="M22.7247 23.9625C22.5934 23.9437 22.4247 23.9437 22.2747 23.9625C18.9747 23.85 16.3496 21.15 16.3496 17.8312C16.3496 14.4375 19.0872 11.6812 22.4997 11.6812C25.8934 11.6812 28.6497 14.4375 28.6497 17.8312C28.6309 21.15 26.0247 23.85 22.7247 23.9625Z" stroke="white" stroke-width="2" stroke-linecap="round" stroke-linejoin="round"/>
<path d="M35.1373 36.3377C31.7998 39.3939 27.3748 41.2502 22.4998 41.2502C17.6248 41.2502 13.1998 39.3939 9.8623 36.3377C10.0498 34.5752 11.1748 32.8502 13.1811 31.5002C18.3186 28.0877 26.7185 28.0877 31.8185 31.5002C33.8248 32.8502 34.9498 34.5752 35.1373 36.3377Z" stroke="white" stroke-width="2" stroke-linecap="round" stroke-linejoin="round"/>
<path d="M22.5 41.25C32.8552 41.25 41.25 32.8553 41.25 22.5C41.25 12.1447 32.8552 3.75 22.5 3.75C12.1447 3.75 3.75 12.1447 3.75 22.5C3.75 32.8553 12.1447 41.25 22.5 41.25Z" stroke="white" stroke-width="2" stroke-linecap="round" stroke-linejoin="round"/>
</svg>
